# xmcd
#
# Track frame offsets: 
#        150
#        38903
#        63127
#        73754
#        85607
#        112506
#        134613
#        150255
#        176607
#        218330
#        230852
#        254853
#        282087
#        303525
#        316269
#
# Disc length: 4571 seconds
#
# Revision: 0
# Processed by: cddbd v1.5.2PL0 Copyright (c) Steve Scherf et al.
# Submitted via: ExactAudioCopy v1.1
#
DISCID=c911d90f
DTITLE=Randy Hansen - Funtown
DYEAR=2015
DGENRE=Rock
TTITLE0=Funtown
TTITLE1=Save America
TTITLE2=Odd Ball
TTITLE3=Mind Controler
TTITLE4=Paramount
TTITLE5=Izaiah
TTITLE6=Two Wonderful Dragonflies
TTITLE7=Leave The Last Door Open
TTITLE8=Underwater Lazarium
TTITLE9=Lookout My Love
TTITLE10=Keep On Keep'en On
TTITLE11=Fight'em By Myself
TTITLE12=The Pain
TTITLE13=X-15
TTITLE14=Private Disneyland
EXTD=
EXTT0=
EXTT1=
EXTT2=
EXTT3=
EXTT4=
EXTT5=
EXTT6=
EXTT7=
EXTT8=
EXTT9=
EXTT10=
EXTT11=
EXTT12=
EXTT13=
EXTT14=
PLAYORDER=
